HIERARCHY
ROOT Hips
{
  OFFSET 5.72205e-005 65.662 3.42586
  CHANNELS 6 Xposition Yposition Zposition Zrotation Xrotation Yrotation
  JOINT Chest
  {
    OFFSET 0 8.7983 -4.7612
    CHANNELS 3 Zrotation Xrotation Yrotation
    JOINT Chest2
    {
      OFFSET 0 8.0291 0.4195
      CHANNELS 3 Zrotation Xrotation Yrotation
      JOINT Chest3
      {
        OFFSET 0 9.9351 -2.2114
        CHANNELS 3 Zrotation Xrotation Yrotation
        JOINT Neck
        {
          OFFSET 0 22.3885 -0.4656
          CHANNELS 3 Zrotation Xrotation Yrotation
          JOINT Head
          {
            OFFSET -0.0001 12.643 3.4389
            CHANNELS 3 Zrotation Xrotation Yrotation
            End Site
            {
              OFFSET 0.0001 17.6655 0.5274
            }
          }
        }
        JOINT LeftCollar
        {
          OFFSET 2.2603 21.606 7.4023
          CHANNELS 3 Zrotation Xrotation Yrotation
          JOINT LeftShoulder
          {
            OFFSET 13.5163 -1.1332 -5.0146
            CHANNELS 3 Zrotation Xrotation Yrotation
            JOINT LeftElbow
            {
              OFFSET -0.0995 -28.05 -0.2431
              CHANNELS 3 Zrotation Xrotation Yrotation
              JOINT LeftWrist
              {
                OFFSET 0.0679 -23.3996 -0.1402
                CHANNELS 3 Zrotation Xrotation Yrotation
                JOINT LeftFinger1
                {
                  OFFSET 0.7932 -9.069 2.5189
                  CHANNELS 3 Zrotation Xrotation Yrotation
                  JOINT LeftFinger11
                  {
                    OFFSET -0.8272 -3.3923 0.5977
                    CHANNELS 3 Zrotation Xrotation Yrotation
                    JOINT LeftFinger12
                    {
                      OFFSET -0.5649 -2.3158 0.4082
                      CHANNELS 3 Zrotation Xrotation Yrotation
                      End Site
                      {
                        OFFSET -0.4919 -1.6479 0.2673
                      }
                    }
                  }
                }
                JOINT LeftFinger2
                {
                  OFFSET 0.9159 -9.2044 0.2193
                  CHANNELS 3 Zrotation Xrotation Yrotation
                  JOINT LeftFinger21
                  {
                    OFFSET 0.0117 -4.1944 -0.0248
                    CHANNELS 3 Zrotation Xrotation Yrotation
                    JOINT LeftFinger22
                    {
                      OFFSET 0.0071 -2.3249 -0.0142
                      CHANNELS 3 Zrotation Xrotation Yrotation
                      End Site
                      {
                        OFFSET -0.1475 -2.0882 0.0028
                      }
                    }
                  }
                }
                JOINT LeftFinger3
                {
                  OFFSET 0.6113 -8.7231 -2.0637
                  CHANNELS 3 Zrotation Xrotation Yrotation
                  JOINT LeftFinger31
                  {
                    OFFSET -0.1927 -3.8059 -0.2383
                    CHANNELS 3 Zrotation Xrotation Yrotation
                    JOINT LeftFinger32
                    {
                      OFFSET -0.1091 -2.1688 -0.1362
                      CHANNELS 3 Zrotation Xrotation Yrotation
                      End Site
                      {
                        OFFSET -0.2358 -1.9176 -0.0906
                      }
                    }
                  }
                }
                JOINT LeftFinger4
                {
                  OFFSET -0.6151 -8.0947 -3.5641
                  CHANNELS 3 Zrotation Xrotation Yrotation
                  JOINT LeftFinger41
                  {
                    OFFSET -0.4882 -2.341 -0.6462
                    CHANNELS 3 Zrotation Xrotation Yrotation
                    JOINT LeftFinger42
                    {
                      OFFSET -0.3575 -1.7167 -0.4742
                      CHANNELS 3 Zrotation Xrotation Yrotation
                      End Site
                      {
                        OFFSET -0.4187 -1.5237 -0.3496
                      }
                    }
                  }
                }
                JOINT LeftFinger0
                {
                  OFFSET -1.42 -1.8761 1.4223
                  CHANNELS 3 Zrotation Xrotation Yrotation
                  JOINT LeftFinger01
                  {
                    OFFSET -1.1471 -3.4929 2.6334
                    CHANNELS 3 Zrotation Xrotation Yrotation
                    JOINT LeftFinger02
                    {
                      OFFSET -0.823 -2.3 1.6571
                      CHANNELS 3 Zrotation Xrotation Yrotation
                      End Site
                      {
                        OFFSET -0.5822 -1.6914 1.1582
                      }
                    }
                  }
                }
              }
            }
          }
        }
        JOINT RightCollar
        {
          OFFSET -2.2603 21.606 7.4023
          CHANNELS 3 Zrotation Xrotation Yrotation
          JOINT RightShoulder
          {
            OFFSET -13.5187 -1.1334 -5.0155
            CHANNELS 3 Zrotation Xrotation Yrotation
            JOINT RightElbow
            {
              OFFSET 0.0994 -28.0499 -0.2431
              CHANNELS 3 Zrotation Xrotation Yrotation
              JOINT RightWrist
              {
                OFFSET -0.0679 -23.3996 -0.1402
                CHANNELS 3 Zrotation Xrotation Yrotation
                JOINT RightFinger1
                {
                  OFFSET -0.7932 -9.0691 2.5189
                  CHANNELS 3 Zrotation Xrotation Yrotation
                  JOINT RightFinger11
                  {
                    OFFSET 0.8272 -3.3923 0.5977
                    CHANNELS 3 Zrotation Xrotation Yrotation
                    JOINT RightFinger12
                    {
                      OFFSET 0.565 -2.3158 0.4082
                      CHANNELS 3 Zrotation Xrotation Yrotation
                      End Site
                      {
                        OFFSET 0.4919 -1.6479 0.2673
                      }
                    }
                  }
                }
                JOINT RightFinger2
                {
                  OFFSET -0.916 -9.2044 0.2193
                  CHANNELS 3 Zrotation Xrotation Yrotation
                  JOINT RightFinger21
                  {
                    OFFSET -0.0117 -4.1944 -0.0248
                    CHANNELS 3 Zrotation Xrotation Yrotation
                    JOINT RightFinger22
                    {
                      OFFSET -0.0071 -2.3249 -0.0142
                      CHANNELS 3 Zrotation Xrotation Yrotation
                      End Site
                      {
                        OFFSET 0.1475 -2.0882 0.0028
                      }
                    }
                  }
                }
                JOINT RightFinger3
                {
                  OFFSET -0.6113 -8.7231 -2.0637
                  CHANNELS 3 Zrotation Xrotation Yrotation
                  JOINT RightFinger31
                  {
                    OFFSET 0.1927 -3.8059 -0.2383
                    CHANNELS 3 Zrotation Xrotation Yrotation
                    JOINT RightFinger32
                    {
                      OFFSET 0.1091 -2.1688 -0.1362
                      CHANNELS 3 Zrotation Xrotation Yrotation
                      End Site
                      {
                        OFFSET 0.2358 -1.9176 -0.0906
                      }
                    }
                  }
                }
                JOINT RightFinger4
                {
                  OFFSET 0.6151 -8.0947 -3.564
                  CHANNELS 3 Zrotation Xrotation Yrotation
                  JOINT RightFinger41
                  {
                    OFFSET 0.4882 -2.341 -0.6462
                    CHANNELS 3 Zrotation Xrotation Yrotation
                    JOINT RightFinger42
                    {
                      OFFSET 0.3574 -1.7166 -0.4742
                      CHANNELS 3 Zrotation Xrotation Yrotation
                      End Site
                      {
                        OFFSET 0.4187 -1.5237 -0.3496
                      }
                    }
                  }
                }
                JOINT RightFinger0
                {
                  OFFSET 1.4199 -1.8761 1.4221
                  CHANNELS 3 Zrotation Xrotation Yrotation
                  JOINT RightFinger01
                  {
                    OFFSET 1.1472 -3.4929 2.6336
                    CHANNELS 3 Zrotation Xrotation Yrotation
                    JOINT RightFinger02
                    {
                      OFFSET 0.8229 -2.3 1.6571
                      CHANNELS 3 Zrotation Xrotation Yrotation
                      End Site
                      {
                        OFFSET 0.5822 -1.6914 1.1582
                      }
                    }
                  }
                }
              }
            }
          }
        }
      }
    }
  }
  JOINT RightHip
  {
    OFFSET -9.412 3.9771 -0.7758
    CHANNELS 3 Zrotation Xrotation Yrotation
    JOINT RightKnee
    {
      OFFSET -0.7531 -40.938 0
      CHANNELS 3 Zrotation Xrotation Yrotation
      JOINT RightAnkle
      {
        OFFSET 0 -40.1986 0
        CHANNELS 3 Zrotation Xrotation Yrotation
        JOINT RightToe
        {
          OFFSET 0 -4.4182 9.239
          CHANNELS 3 Zrotation Xrotation Yrotation
          End Site
          {
            OFFSET 0 0 6.1981
          }
        }
      }
    }
  }
  JOINT LeftHip
  {
    OFFSET 9.4119 3.9773 -0.7758
    CHANNELS 3 Zrotation Xrotation Yrotation
    JOINT LeftKnee
    {
      OFFSET 0.7532 -40.9383 0
      CHANNELS 3 Zrotation Xrotation Yrotation
      JOINT LeftAnkle
      {
        OFFSET 0 -40.1986 0
        CHANNELS 3 Zrotation Xrotation Yrotation
        JOINT LeftToe
        {
          OFFSET 0 -4.4182 9.239
          CHANNELS 3 Zrotation Xrotation Yrotation
          End Site
          {
            OFFSET 0 0 6.1981
          }
        }
      }
    }
  }
}
MOTION
Frames:	6
Frame Time:	0.0333333
-0.281689 61.8427 8.32118 2.54238e-007 -4.86679 2.20013e-007 -0.258659 2.78212 -0.133509 -0.511727 5.56483 -0.254877 -0.511727 5.56483 -0.254878 2.31143e-006 -5.85206 1.10641e-006 -3.49e-007 -0.267535 1.93361e-008 -13.245 14.0009 -17.7004 20.8171 -21.1074 -17.5402 -6.29252 -27.1842 23.4563 -6.8832 1.25944 -0.138073 9.70573e-007 1.76284e-007 3.03872e-006 -9.70573e-007 2.98112e-006 -3.03872e-006 -3.18055e-015 -3.1574e-006 -3.18055e-015 9.70573e-007 1.76284e-007 3.03872e-006 -0.0128469 0.00232695 8.59847e-005 -1.11319e-014 -6.36111e-015 -9.54166e-015 9.70573e-007 1.76284e-007 3.03872e-006 -0.0160481 0.00300131 0.000847927 7.95139e-015 3.18055e-015 -6.36111e-015 9.70573e-007 1.76284e-007 3.03872e-006 -0.01258 0.0031189 0.00282454 8.74653e-015 0 3.18055e-015 9.70573e-007 1.76284e-007 3.03872e-006 -9.70573e-007 2.98112e-006 -3.03872e-006 -3.18055e-015 -3.1574e-006 -3.18055e-015 12.0844 14.0215 12.4469 -19.39 -22.4354 22.5676 6.84107 -26.9338 -23.5346 6.87347 1.25173 0.312783 -4.81407e-007 9.29024e-008 -1.53501e-006 -9.62814e-007 5.70411e-007 -3.07003e-006 2.43476e-006 1.37826e-006 -2.88199e-006 -4.81407e-007 9.29024e-008 -1.53501e-006 0.0129576 0.00231873 -8.7926e-005 -3.87839e-006 -5.07058e-007 -1.72321e-006 -4.81407e-007 9.29024e-008 -1.53501e-006 0.0163758 0.00303335 -0.000876157 4.94308e-006 -3.36402e-007 -3.11538e-006 -4.81407e-007 9.29024e-008 -1.53501e-006 0.0145506 0.00367262 -0.00325439 7.61221e-006 -8.31583e-006 -3.33187e-006 -4.81407e-007 9.29024e-008 -1.53501e-006 -9.62814e-007 5.70411e-007 -3.07003e-006 2.43476e-006 1.37826e-006 -2.88199e-006 -0.56633 1.29808 -11.7016 3.62011 26.1272 -1.5127 11.2932 -21.8216 -2.13556 3.97569e-016 3.97569e-016 -0 14.1108 -7.5782 15.2063 4.10279 27.3932 -3.4993 -12.2419 -21.5321 1.90616 2.1033e-007 -7.08564e-008 -3.60257e-008 
-0.281759 61.8526 8.39977 -4.47723e-007 -5.00071 -1.90299e-007 -0.258377 2.69725 -0.133411 -0.511307 5.39507 -0.255052 -0.511308 5.39508 -0.255053 -9.2108e-007 -6.00202 -4.9548e-007 -2.05019e-007 -0.267537 -1.11949e-007 -13.3866 14.3932 -17.7116 20.9515 -21.0524 -17.4817 -6.2295 -27.1287 23.488 -6.8832 1.25943 -0.138082 -4.88656e-007 -8.92164e-008 -1.51716e-006 4.88656e-007 8.92164e-008 1.51716e-006 -4.88656e-007 -8.92164e-008 -1.51716e-006 -4.88656e-007 -8.92164e-008 -1.51716e-006 -0.0127855 0.00232256 8.60175e-005 -9.03418e-007 1.17046e-006 2.23856e-006 -4.88656e-007 -8.92164e-008 -1.51716e-006 -0.0160262 0.00299409 0.000856679 5.56597e-015 1.80928e-006 -3.18055e-015 -4.88656e-007 -8.92164e-008 -1.51716e-006 -0.0126113 0.00312677 0.00283008 5.56597e-015 1.26285e-006 6.36111e-015 -4.88656e-007 -8.92164e-008 -1.51716e-006 4.88656e-007 8.92164e-008 1.51716e-006 -4.88656e-007 -8.92164e-008 -1.51716e-006 12.2173 14.4117 12.4653 -19.5288 -22.3914 22.5049 6.77903 -26.8795 -23.5674 6.87346 1.25174 0.312762 4.85094e-007 -9.3987e-008 1.53296e-006 -4.85094e-007 9.3987e-008 -1.53296e-006 4.77083e-015 6.36111e-015 3.18055e-015 4.85094e-007 -9.3987e-008 1.53296e-006 0.0129593 0.00231216 -8.5002e-005 -4.02768e-006 3.7209e-006 -1.75868e-006 4.85094e-007 -9.3987e-008 1.53296e-006 0.0163288 0.00303411 -0.000874312 3.18055e-015 3.18055e-015 -3.18055e-015 4.85094e-007 -9.3987e-008 1.53296e-006 0.0145815 0.00367538 -0.00326013 4.84849e-007 -9.39342e-008 1.53303e-006 4.85094e-007 -9.3987e-008 1.53296e-006 -4.85094e-007 9.3987e-008 -1.53296e-006 4.77083e-015 6.36111e-015 3.18055e-015 -0.56403 1.5112 -11.6913 3.62003 26.1332 -1.51308 11.2931 -21.8236 -2.13522 5.96354e-016 2.24661e-007 -0 14.1117 -7.39179 15.202 4.10298 27.3951 -3.4994 -12.2415 -21.532 1.90632 -5.76056e-007 1.84992e-007 -1.5453e-006 
-0.281689 61.8427 8.32118 2.70348e-007 -4.86679 2.20558e-007 -0.258659 2.78212 -0.133509 -0.511727 5.56483 -0.254877 -0.511727 5.56483 -0.254878 2.31143e-006 -5.85206 1.10641e-006 -2.42444e-007 -0.267535 2.52612e-008 -13.245 14.0009 -17.7004 20.8171 -21.1075 -17.5402 -6.29251 -27.1842 23.4564 -6.88321 1.25944 -0.138057 -1.33473e-005 4.68442e-007 3.61224e-006 4.85286e-007 1.39783e-006 1.51936e-006 -7.95139e-016 0 6.36111e-015 -1.33473e-005 4.68442e-007 3.61224e-006 -0.0128177 0.00232701 9.76512e-005 -5.56597e-015 1.27222e-014 -3.18055e-015 -1.33473e-005 4.68442e-007 3.61224e-006 -0.0160539 0.00299768 0.000859082 6.36111e-015 -3.87661e-006 -3.18055e-015 -1.33473e-005 4.68442e-007 3.61224e-006 -0.0125789 0.00312297 0.00283285 1.72228e-006 -1.25226e-006 6.08174e-007 -1.33473e-005 4.68442e-007 3.61224e-006 4.85286e-007 1.39783e-006 1.51936e-006 -7.95139e-016 0 6.36111e-015 12.0844 14.0215 12.4469 -19.39 -22.4354 22.5676 6.84104 -26.9338 -23.5346 6.87345 1.25172 0.312781 1.46167e-005 3.16902e-006 -5.41066e-006 -1.50981e-005 -1.43125e-006 3.87565e-006 1.50981e-005 3.21547e-006 -3.87565e-006 1.46167e-005 3.16902e-006 -5.41066e-006 0.0129581 0.00232224 -8.6394e-005 1.3603e-005 3.65339e-006 -4.52581e-006 1.46167e-005 3.16902e-006 -5.41066e-006 0.016322 0.00302888 -0.000868227 8.15168e-007 7.84616e-006 -2.22656e-006 1.46167e-005 3.16902e-006 -5.41066e-006 0.0145741 0.0036788 -0.00325855 8.15665e-007 8.58521e-006 -2.2259e-006 1.46167e-005 3.16902e-006 -5.41066e-006 -1.50981e-005 -1.43125e-006 3.87565e-006 1.50981e-005 3.21547e-006 -3.87565e-006 -0.56633 1.29808 -11.7016 3.62014 26.1272 -1.51272 11.2932 -21.8216 -2.13556 7.91453e-008 -1.96604e-007 1.61287e-006 14.1108 -7.5782 15.2063 4.10278 27.3932 -3.49928 -12.2419 -21.5321 1.90617 2.1033e-007 5.6522e-009 -3.60257e-008 
-0.281586 61.8262 8.19015 2.48787e-009 -4.6436 -6.36595e-009 -0.259138 2.92373 -0.133685 -0.512437 5.84802 -0.254606 -0.512436 5.84802 -0.254606 -5.29486e-006 -5.60198 -2.61612e-006 4.39828e-007 -0.267535 2.01415e-007 -13.0089 13.3471 -17.6809 20.5926 -21.1991 -17.6381 -6.39746 -27.2764 23.4034 -6.88321 1.25942 -0.138057 -4.79635e-007 -3.64152e-007 -1.52298e-006 -2.38542e-015 -3.18055e-015 3.18055e-015 1.36528e-005 9.42755e-006 4.61517e-006 -4.79635e-007 -3.64152e-007 -1.52298e-006 -0.0128288 0.00232599 8.63288e-005 -5.75864e-006 3.1751e-006 1.73842e-006 -4.79635e-007 -3.64152e-007 -1.52298e-006 -0.0160269 0.00298442 0.000853793 1.72588e-006 -1.92123e-006 6.03079e-007 -4.79635e-007 -3.64152e-007 -1.52298e-006 -0.0125824 0.00312533 0.00283155 4.79419e-007 -1.72173e-006 1.52304e-006 -4.79635e-007 -3.64152e-007 -1.52298e-006 -2.38542e-015 -3.18055e-015 3.18055e-015 1.36528e-005 9.42755e-006 4.61517e-006 11.8627 13.3711 12.4155 -19.16 -22.5089 22.6719 6.9458 -27.0244 -23.4797 6.87347 1.25173 0.312747 2.44788e-006 1.98714e-006 3.72308e-006 -1.51056e-005 -1.45434e-006 3.81668e-006 -5.36162e-006 9.27923e-007 4.20567e-006 2.44788e-006 1.98714e-006 3.72308e-006 0.0129499 0.00231496 -8.291e-005 1.49808e-006 1.34616e-006 6.46355e-007 2.44788e-006 1.98714e-006 3.72308e-006 0.016304 0.0030316 -0.000871105 4.74984e-007 -9.10932e-008 1.53842e-006 2.44788e-006 1.98714e-006 3.72308e-006 0.0146076 0.00368031 -0.00326639 9.49966e-007 -1.82153e-007 3.07691e-006 2.44788e-006 1.98714e-006 3.72308e-006 -1.51056e-005 -1.45434e-006 3.81668e-006 -5.36162e-006 9.27923e-007 4.20567e-006 -0.570416 0.944254 -11.7189 3.62062 26.116 -1.51197 11.2933 -21.8185 -2.13613 -2.48837e-006 -4.32027e-007 -7.84426e-008 14.1094 -7.88905 15.2136 4.10251 27.3903 -3.49916 -12.2426 -21.5325 1.9059 -1.05141e-007 9.19524e-007 1.81601e-008 
-0.281517 61.8131 8.08528 3.18087e-007 -4.46503 -5.09275e-008 -0.259501 3.03736 -0.133816 -0.51297 6.07529 -0.254369 -0.512971 6.07529 -0.25437 -3.40841e-008 -5.40203 5.16871e-008 9.26317e-007 -0.26754 1.56871e-007 -12.8203 12.8237 -17.663 20.4129 -21.2721 -17.7167 -6.48174 -27.3502 23.3609 -6.8832 1.25943 -0.138076 6.36111e-015 1.59028e-015 -0 -4.75064e-007 3.08683e-006 -1.52586e-006 7.95139e-016 0 6.36111e-015 6.36111e-015 1.59028e-015 -0 -0.0128069 0.00232734 8.90047e-005 -9.49736e-007 -8.49864e-008 -3.05176e-006 6.36111e-015 1.59028e-015 -0 -0.0160465 0.00300015 0.000855524 3.97569e-015 4.77083e-015 3.18055e-015 6.36111e-015 1.59028e-015 -0 -0.0125858 0.00312683 0.00282573 -4.77083e-015 -3.18055e-015 -0 6.36111e-015 1.59028e-015 -0 -4.75064e-007 3.08683e-006 -1.52586e-006 7.95139e-016 0 6.36111e-015 11.6854 12.8503 12.3882 -18.9759 -22.5675 22.7555 7.02989 -27.0969 -23.4357 6.87343 1.25172 0.31278 4.07046e-006 -1.83803e-006 1.69185e-006 1.59028e-015 4.77083e-015 -3.18055e-015 -3.60023e-006 3.53253e-006 -1.5078e-007 4.07046e-006 -1.83803e-006 1.69185e-006 0.0129329 0.00232126 -9.02751e-005 -7.95139e-016 -4.77083e-015 6.36111e-015 4.07046e-006 -1.83803e-006 1.69185e-006 0.016309 0.00303539 -0.000880246 -3.18055e-015 -1.59028e-015 3.18055e-015 4.07046e-006 -1.83803e-006 1.69185e-006 0.0145806 0.00367828 -0.00326179 -1.13738e-005 1.96809e-006 1.61517e-006 4.07046e-006 -1.83803e-006 1.69185e-006 1.59028e-015 4.77083e-015 -3.18055e-015 -3.60023e-006 3.53253e-006 -1.5078e-007 -0.573645 0.656908 -11.7326 3.62023 26.1109 -1.51176 11.2933 -21.8158 -2.13658 3.37934e-015 1.19271e-015 3.18055e-015 14.1083 -8.13779 15.2195 4.10232 27.388 -3.49908 -12.2431 -21.5327 1.90567 4.20484e-007 7.00661e-007 -7.31109e-008 
-0.281451 61.8001 7.98038 1.18882e-007 -4.28646 -1.22149e-007 -0.259851 3.15121 -0.133942 -0.513478 6.30297 -0.254122 -0.51348 6.30299 -0.254122 -1.71321e-007 -5.20199 -1.78751e-007 2.47813e-007 -0.267539 2.08728e-007 -12.6318 12.3 -17.6433 20.2329 -21.3449 -17.7956 -6.5659 -27.4239 23.3183 -6.88323 1.25944 -0.138076 2.64834e-031 1.59028e-015 -9.54166e-015 -1.59028e-015 -1.59028e-015 -3.18055e-015 4.77083e-015 -6.36111e-015 -0 2.64834e-031 1.59028e-015 -9.54166e-015 -0.0128039 0.00231803 7.77868e-005 3.18055e-015 0 -3.18055e-015 2.64834e-031 1.59028e-015 -9.54166e-015 -0.016044 0.00299051 0.000855946 2.38542e-015 -1.59028e-015 3.18055e-015 2.64834e-031 1.59028e-015 -9.54166e-015 -0.0125824 0.00312697 0.0028276 2.38542e-015 1.59028e-015 -9.54166e-015 2.64834e-031 1.59028e-015 -9.54166e-015 -1.59028e-015 -1.59028e-015 -3.18055e-015 4.77083e-015 -6.36111e-015 -0 11.5082 12.3295 12.3593 -18.7915 -22.6257 22.8394 7.11394 -27.1693 -23.3915 6.87344 1.25172 0.312796 7.95139e-016 -6.36111e-015 -0 1.59028e-015 -3.18055e-015 -6.36111e-015 -1.50296e-006 -1.34669e-006 -6.39564e-007 7.95139e-016 -6.36111e-015 -0 0.0129423 0.00230731 -8.99384e-005 -7.95139e-016 0 -0 7.95139e-016 -6.36111e-015 -0 0.0163522 0.00303642 -0.000876567 -8.17857e-006 8.82846e-006 -3.34111e-006 7.95139e-016 -6.36111e-015 -0 0.0146039 0.00368403 -0.00327161 5.17037e-006 -5.82495e-006 2.06113e-006 7.95139e-016 -6.36111e-015 -0 1.59028e-015 -3.18055e-015 -6.36111e-015 -1.50296e-006 -1.34669e-006 -6.39564e-007 -0.57689 0.368344 -11.7463 3.61959 26.107 -1.51166 11.2933 -21.8132 -2.13707 7.95139e-016 -1.59592e-010 3.18055e-015 14.1071 -8.38681 15.2253 4.1022 27.3861 -3.49899 -12.2436 -21.533 1.90544 4.20405e-007 -1.3516e-007 -7.35814e-008 
